<svg version="1.1" id="Layer_1" xmlns="http://www.w3.org/2000/svg" xmlns:xlink="http://www.w3.org/1999/xlink" x="0px" y="0px"
	 width="100%" viewBox="219.43 219.43 585.14 585.14" enable-background="new 0 0 1024 1024" xml:space="preserve">
<path fill="#FFFFFF" opacity="1.000000" stroke="none" 
	d="
M630.936707,486.924194 
	C625.152527,493.395966 619.776917,499.770996 613.989441,505.747040 
	C611.356567,508.465637 611.750610,510.034332 614.000916,512.735596 
	C650.141174,556.119141 686.165466,599.599365 722.197083,643.073364 
	C723.108826,644.173462 724.536255,645.008484 724.457703,647.380493 
	C718.398438,647.380493 712.248718,646.749146 706.277832,647.513977 
	C694.426270,649.032227 686.596924,644.730042 678.991333,635.218079 
	C652.366211,601.919006 624.671692,569.474854 597.360107,536.725403 
	C595.794678,534.848206 594.609985,532.539795 591.612427,531.287964 
	C583.987488,538.947449 576.595032,546.999329 569.737732,555.531372 
	C568.451233,557.132080 569.016113,559.400513 569.018188,561.384460 
	C569.046082,588.210388 569.113708,615.036377 569.105164,641.862305 
	C569.103638,646.704590 567.514587,648.080078 563.722229,647.181335 
	C562.008179,646.775146 561.341187,645.526489 560.670898,644.169678 
	C554.401489,631.479919 548.154602,618.778992 541.831909,606.115784 
	C540.816101,604.081360 540.663391,601.999084 540.663391,599.819275 
	C540.664246,528.671448 540.687744,457.523529 540.567017,386.375854 
	C540.559692,382.064484 541.730530,380.353882 546.198181,380.612976 
	C551.677979,380.930786 557.206482,380.934052 562.684570,380.596832 
	C567.417969,380.305450 569.089722,381.861572 569.048889,386.769989 
	C568.853394,410.261719 569.014282,433.756195 569.005249,457.249695 
	C568.999023,473.411896 568.908997,489.574066 568.889832,505.736328 
	C568.886780,508.339752 568.650452,510.990997 569.514771,513.610046 
	C571.803467,513.209412 572.747498,511.493408 573.887756,510.194885 
	C610.816406,468.141357 647.706848,426.054230 684.587585,383.958649 
	C686.149048,382.176422 687.592896,380.598938 690.344360,380.634644 
	C700.173340,380.762177 710.004883,380.678772 719.835510,380.698273 
	C720.633362,380.699860 721.517639,380.624054 722.672058,382.369324 
	C692.303772,416.986176 661.740479,451.825348 630.936707,486.924194 
z"/>
<path fill="#FFFFFF" opacity="1.000000" stroke="none" 
	d="
M441.565918,502.355408 
	C428.364075,474.296661 415.361511,446.562439 402.185638,418.910797 
	C400.666260,415.722198 400.634552,413.146576 402.173584,410.007416 
	C405.982300,402.238464 409.452698,394.304016 413.099060,386.454651 
	C413.638397,385.293640 413.859039,383.843170 416.306885,382.950531 
	C457.545654,470.703979 498.808289,558.508179 540.513367,647.253906 
	C530.178406,647.253906 521.059998,647.297058 511.942413,647.227661 
	C509.192627,647.206726 508.634552,644.705872 507.747192,642.825195 
	C500.359344,627.168091 492.873993,611.553345 485.786713,595.760315 
	C483.649628,590.998108 480.999084,589.089294 475.611572,589.299500 
	C445.981110,590.455627 416.328186,589.748230 386.684113,589.885986 
	C383.545471,589.900574 380.381714,590.013184 376.626984,588.800110 
	C380.050659,580.240601 383.361786,571.804260 387.626770,563.782410 
	C388.960571,561.273682 391.751617,561.990234 393.988251,561.984436 
	C416.808075,561.925476 439.628143,561.940186 462.448120,561.934448 
	C464.419891,561.933960 466.391663,561.934387 469.430603,561.934387 
	C459.952576,541.680237 450.833099,522.192383 441.565918,502.355408 
z"/>
<path fill="#FFFFFF" opacity="1.000000" stroke="none" 
	d="
M392.153748,498.082153 
	C370.367096,545.663147 348.628021,592.851685 327.210968,640.186035 
	C324.702057,645.731018 321.760712,647.998840 315.633881,647.506348 
	C308.384857,646.923584 301.053131,647.369385 292.559601,647.369385 
	C327.350616,572.324768 361.682159,498.271149 395.942810,424.370575 
	C398.398285,424.438965 398.712891,426.120422 399.322083,427.384857 
	C403.081055,435.186951 406.675934,443.070160 410.556824,450.810364 
	C411.979797,453.648438 411.797485,455.984924 410.457672,458.794220 
	C404.292694,471.720642 398.331848,484.744476 392.153748,498.082153 
z"/>
</svg>